<svg width="801" height="238" viewBox="0 0 801 238" fill="none" xmlns="http://www.w3.org/2000/svg">
<path d="M794.905 209.109C794.905 212.093 794.316 215.048 793.173 217.804C792.03 220.561 790.355 223.065 788.243 225.174C786.131 227.283 783.625 228.956 780.866 230.096C778.107 231.235 775.151 231.82 772.166 231.817H28.0463C22.0152 231.824 16.2285 229.435 11.9588 225.176C7.68917 220.918 5.28618 215.138 5.27832 209.109V28.0151C5.28618 21.9828 7.68822 16.2003 11.957 11.937C16.2258 7.6738 22.0125 5.27842 28.0463 5.27686H772.16C775.147 5.27686 778.104 5.86504 780.863 7.00782C783.622 8.15059 786.129 9.82557 788.241 11.9371C790.352 14.0486 792.027 16.5553 793.169 19.314C794.312 22.0727 794.899 25.0293 794.899 28.0151L794.905 209.109Z" fill="white"/>
<path d="M772.166 237.1H28.0463C20.6167 237.099 13.4911 234.151 8.23306 228.903C2.97506 223.655 0.0141366 216.536 0 209.109L0 28.0211C0.0109911 20.5897 2.96996 13.4661 8.22779 8.21304C13.4856 2.95993 20.613 0.00627235 28.0463 0L772.16 0C779.593 0.00940211 786.718 2.96407 791.975 8.2165C797.233 13.4689 800.192 20.5907 800.207 28.0211V209.109C800.218 224.548 787.616 237.1 772.166 237.1Z" fill="#A6A6A6"/>
<path d="M794.905 209.109C794.905 212.093 794.316 215.048 793.173 217.804C792.03 220.561 790.355 223.065 788.243 225.174C786.131 227.283 783.625 228.956 780.866 230.096C778.107 231.235 775.151 231.82 772.166 231.817H28.0463C22.0152 231.824 16.2285 229.435 11.9588 225.176C7.68917 220.918 5.28618 215.138 5.27832 209.109V28.0151C5.28618 21.9828 7.68822 16.2003 11.957 11.937C16.2258 7.6738 22.0125 5.27842 28.0463 5.27686H772.16C775.147 5.27686 778.104 5.86504 780.863 7.00782C783.622 8.15059 786.129 9.82557 788.241 11.9371C790.352 14.0486 792.027 16.5553 793.169 19.314C794.312 22.0727 794.899 25.0293 794.899 28.0151L794.905 209.109Z" fill="black"/>
<path d="M178.68 117.302C178.508 98.1926 194.331 88.8957 195.055 88.4628C186.094 75.401 172.204 73.6163 167.323 73.474C155.657 72.2467 144.342 80.4526 138.399 80.4526C132.338 80.4526 123.187 73.5926 113.324 73.7942C100.632 73.9898 88.7589 81.336 82.247 92.7437C68.808 116.004 78.8309 150.185 91.7065 168.986C98.1472 178.2 105.673 188.476 115.524 188.114C125.162 187.723 128.762 181.977 140.392 181.977C151.915 181.977 155.296 188.114 165.342 187.883C175.685 187.723 182.197 178.633 188.413 169.342C195.856 158.794 198.845 148.395 198.963 147.861C198.726 147.778 178.882 140.2 178.68 117.302ZM159.702 61.1058C164.885 54.6253 168.432 45.8086 167.448 36.8616C159.945 37.1936 150.563 42.0496 145.16 48.3878C140.38 53.9731 136.11 63.1276 137.213 71.7368C145.64 72.3652 154.293 67.4856 159.702 61.1058Z" fill="white"/>
<path d="M772.166 0H373.593L529.707 237.1H772.166C779.597 237.094 786.723 234.142 791.981 228.891C797.238 223.641 800.198 216.52 800.213 209.091V28.0211C800.2 20.5902 797.24 13.4675 791.983 8.21477C786.725 2.962 779.599 0.00783783 772.166 0Z" fill="url(#paint0_linear_25_27)"/>
<path d="M318.271 186.791H304.803L297.425 163.614H271.781L264.753 186.791H251.64L277.053 107.887H292.746L318.271 186.791ZM295.201 153.891L288.529 133.287C287.823 131.182 286.495 126.225 284.549 118.423H284.312C283.529 121.779 282.278 126.735 280.564 133.287L274.005 153.891H295.201ZM383.497 157.644C383.497 167.32 380.87 174.969 375.609 180.584C370.9 185.582 365.047 188.078 358.066 188.078C350.529 188.078 345.108 185.392 341.816 180.009V209.862H329.172V148.596C329.172 142.519 329.012 136.287 328.704 129.896H339.824L340.529 138.914H340.767C344.983 132.119 351.383 128.722 359.97 128.722C366.684 128.722 372.288 131.372 376.772 136.678C381.25 141.997 383.497 148.981 383.497 157.644ZM370.616 158.106C370.616 152.569 369.37 148.003 366.868 144.404C364.134 140.663 360.462 138.789 355.86 138.789C352.741 138.789 349.906 139.833 347.373 141.89C344.835 143.965 343.174 146.675 342.398 150.031C342.051 151.286 341.854 152.578 341.81 153.879V163.371C341.81 167.504 343.08 170.996 345.618 173.854C348.156 176.7 351.454 178.129 355.51 178.129C360.273 178.129 363.979 176.285 366.63 172.627C369.287 168.957 370.616 164.118 370.616 158.106ZM448.955 157.644C448.955 167.32 446.327 174.969 441.067 180.584C436.352 185.582 430.504 188.078 423.518 188.078C415.98 188.078 410.559 185.392 407.268 180.009V209.862H394.623V148.596C394.623 142.519 394.463 136.287 394.155 129.896H405.275L405.981 138.914H406.218C410.429 132.119 416.828 128.722 425.421 128.722C432.129 128.722 437.734 131.372 442.229 136.678C446.701 141.997 448.955 148.981 448.955 157.644ZM436.067 158.106C436.067 152.569 434.816 148.003 432.313 144.404C429.579 140.663 425.92 138.789 421.317 138.789C418.198 138.789 415.363 139.833 412.819 141.89C410.28 143.965 408.626 146.675 407.849 150.031C407.463 151.596 407.256 152.871 407.256 153.879V163.371C407.256 167.504 408.531 170.996 411.057 173.854C413.596 176.694 416.893 178.129 420.962 178.129C425.73 178.129 429.437 176.285 432.082 172.627C434.739 168.957 436.067 164.118 436.067 158.106ZM522.139 164.658C522.139 171.376 519.791 176.836 515.123 181.052C509.987 185.653 502.817 187.96 493.625 187.96C485.132 187.96 478.323 186.323 473.187 183.044L476.111 172.508C481.656 175.793 487.747 177.429 494.378 177.429C499.146 177.429 502.853 176.35 505.498 174.21C508.149 172.064 509.489 169.194 509.489 165.613C509.489 162.405 508.38 159.719 506.204 157.531C504.015 155.349 500.397 153.316 495.315 151.448C481.496 146.295 474.581 138.76 474.581 128.846C474.581 122.371 477.025 117.071 481.9 112.926C486.775 108.788 493.239 106.719 501.281 106.719C508.463 106.719 514.447 107.97 519.198 110.466L516.025 120.771C511.553 118.351 506.506 117.142 500.86 117.142C496.4 117.142 492.901 118.239 490.398 120.421C488.293 122.371 487.225 124.749 487.225 127.571C487.225 130.684 488.441 133.269 490.861 135.297C492.96 137.165 496.792 139.198 502.331 141.38C509.127 144.119 514.121 147.309 517.318 150.974C520.538 154.638 522.139 159.209 522.139 164.658ZM564.052 139.382H550.115V167.006C550.115 174.032 552.57 177.536 557.492 177.536C559.752 177.536 561.626 177.346 563.109 176.949L563.459 186.548C560.968 187.479 557.688 187.948 553.626 187.948C548.632 187.948 544.73 186.424 541.912 183.376C539.107 180.329 537.696 175.224 537.696 168.038V139.358H529.393V129.872H537.696V119.454L550.115 115.707V129.872H564.052V139.382ZM626.811 157.875C626.811 166.621 624.308 173.801 619.314 179.416C614.089 185.197 607.138 188.078 598.474 188.078C590.111 188.078 583.463 185.309 578.505 179.777C573.547 174.234 571.068 167.249 571.068 158.824C571.068 150.007 573.63 142.785 578.736 137.171C583.854 131.55 590.746 128.739 599.411 128.739C607.761 128.739 614.469 131.514 619.545 137.052C624.397 142.424 626.811 149.361 626.811 157.875ZM613.704 158.166C613.704 152.954 612.577 148.483 610.317 144.742C607.666 140.224 603.871 137.965 598.954 137.965C593.889 137.965 590.005 140.224 587.359 144.742C585.094 148.483 583.967 153.031 583.967 158.403C583.967 163.62 585.094 168.103 587.359 171.832C590.094 176.35 593.907 178.609 598.847 178.609C603.681 178.609 607.47 176.303 610.21 171.72C612.535 167.889 613.704 163.389 613.704 158.166ZM667.928 141.013C666.613 140.775 665.279 140.658 663.943 140.663C659.495 140.663 656.055 142.335 653.635 145.703C651.536 148.667 650.48 152.414 650.48 156.938V186.791H637.836V147.813C637.847 141.841 637.724 135.869 637.468 129.901H648.481L648.944 140.787H649.294C650.634 137.046 652.734 134.028 655.616 131.769C658.254 129.795 661.46 128.726 664.755 128.722C665.924 128.722 666.979 128.805 667.916 128.953L667.928 141.013ZM724.477 155.652C724.509 157.573 724.355 159.493 724.015 161.385H686.082C686.224 167.006 688.063 171.311 691.586 174.275C694.782 176.919 698.916 178.248 703.993 178.248C709.609 178.248 714.733 177.358 719.341 175.562L721.322 184.331C715.937 186.679 709.579 187.847 702.243 187.847C693.418 187.847 686.491 185.25 681.45 180.068C676.421 174.88 673.9 167.907 673.9 159.174C673.9 150.6 676.243 143.455 680.934 137.758C685.845 131.674 692.481 128.633 700.832 128.633C709.034 128.633 715.243 131.674 719.46 137.758C722.799 142.578 724.477 148.554 724.477 155.652ZM712.42 152.373C712.509 148.62 711.679 145.388 709.965 142.655C707.777 139.133 704.408 137.378 699.895 137.378C695.761 137.378 692.392 139.092 689.83 142.53C687.725 145.264 686.473 148.549 686.088 152.361L712.42 152.373Z" fill="white"/>
<path d="M268.133 79.9901C264.616 79.9901 261.574 79.8182 259.042 79.5276V41.3796C262.583 40.8326 266.163 40.563 269.746 40.5732C284.247 40.5732 290.925 47.706 290.925 59.333C290.925 72.7447 283.037 79.9901 268.133 79.9901ZM270.256 45.4647C268.299 45.4647 266.633 45.5833 265.251 45.8679V74.8673C265.998 74.9859 267.433 75.0393 269.45 75.0393C278.951 75.0393 284.36 69.6319 284.36 59.5049C284.36 50.4749 279.467 45.4647 270.256 45.4647ZM311.736 80.2806C303.563 80.2806 298.267 74.1796 298.267 65.8966C298.267 57.2637 303.676 51.1093 312.198 51.1093C320.252 51.1093 325.667 56.9198 325.667 65.44C325.667 74.1796 320.086 80.2806 311.736 80.2806ZM311.973 55.651C307.484 55.651 304.607 59.8488 304.607 65.7187C304.607 71.4759 307.543 75.6737 311.914 75.6737C316.285 75.6737 319.22 71.1853 319.22 65.6001C319.22 59.9081 316.344 55.651 311.973 55.651ZM372.271 51.6844L363.523 79.6462H357.823L354.2 67.5034C353.299 64.5331 352.548 61.5193 351.952 58.4733H351.833C351.377 61.5209 350.511 64.5744 349.592 67.5034L345.737 79.6462H339.978L331.746 51.6844H338.133L341.3 64.9775C342.048 68.1437 342.676 71.132 343.198 73.9542H343.317C343.774 71.6004 344.521 68.6595 345.618 65.0368L349.592 51.6903H354.656L358.458 64.7522C359.377 67.9184 360.124 71.0253 360.706 73.9602H360.872C361.275 71.0845 361.91 68.031 362.77 64.7522L366.168 51.6903L372.271 51.6844ZM404.474 79.6462H398.259V63.5901C398.259 58.6452 396.361 56.1668 392.619 56.1668C388.936 56.1668 386.403 59.333 386.403 63.015V79.6462H380.188V59.6769C380.188 57.2044 380.129 54.5541 379.957 51.6785H385.425L385.715 55.9949H385.887C387.56 53.0066 390.952 51.1093 394.754 51.1093C400.625 51.1093 404.48 55.5976 404.48 62.9023L404.474 79.6462ZM421.614 79.6462H415.393V38.8538H421.614V79.6462ZM444.275 80.2806C436.109 80.2806 430.807 74.1796 430.807 65.8966C430.807 57.2637 436.215 51.1093 444.732 51.1093C452.792 51.1093 458.201 56.9198 458.201 65.44C458.207 74.1796 452.62 80.2806 444.275 80.2806ZM444.507 55.651C440.017 55.651 437.141 59.8488 437.141 65.7187C437.141 71.4759 440.082 75.6737 444.441 75.6737C448.818 75.6737 451.748 71.1853 451.748 65.6001C451.754 59.9081 448.883 55.651 444.507 55.651ZM482.706 79.6462L482.256 76.4267H482.089C480.192 79.0177 477.422 80.2806 473.911 80.2806C468.9 80.2806 465.341 76.7706 465.341 72.051C465.341 65.1495 471.325 61.5801 481.686 61.5801V61.0643C481.686 57.3823 479.735 55.5383 475.88 55.5383C473.122 55.5383 470.703 56.2321 468.573 57.6135L467.31 53.5284C469.896 51.9156 473.122 51.1093 476.912 51.1093C484.219 51.1093 487.907 54.9632 487.907 62.677V72.9759C487.907 75.7982 488.032 77.9861 488.311 79.6522L482.706 79.6462ZM481.852 65.7187C474.949 65.7187 471.485 67.3907 471.485 71.3573C471.485 74.2922 473.271 75.7271 475.75 75.7271C478.911 75.7271 481.852 73.3139 481.852 70.0351V65.7187ZM518.089 79.6462L517.798 75.1579H517.626C515.841 78.5493 512.84 80.2806 508.647 80.2806C501.904 80.2806 496.91 74.3515 496.91 66.0092C496.91 57.2637 502.088 51.1034 509.157 51.1034C512.899 51.1034 515.551 52.3663 517.045 54.9039H517.17V38.8538H523.391V72.1103C523.391 74.814 523.456 77.3457 523.622 79.6462H518.089ZM517.17 63.1929C517.17 59.2796 514.578 55.9415 510.622 55.9415C506.014 55.9415 503.197 60.0267 503.197 65.778C503.197 71.4166 506.121 75.2764 510.498 75.2764C514.406 75.2764 517.17 71.8791 517.17 67.8532V63.1929ZM562.836 80.2806C554.669 80.2806 549.373 74.1796 549.373 65.8966C549.373 57.2637 554.782 51.1093 563.299 51.1093C571.358 51.1093 576.767 56.9198 576.767 65.44C576.773 74.1796 571.192 80.2806 562.836 80.2806ZM563.067 55.651C558.584 55.651 555.707 59.8488 555.707 65.7187C555.707 71.4759 558.643 75.6737 563.008 75.6737C567.385 75.6737 570.315 71.1853 570.315 65.6001C570.327 59.9081 567.45 55.651 563.067 55.651ZM610.193 79.6462H603.971V63.5901C603.971 58.6452 602.074 56.1668 598.331 56.1668C594.648 56.1668 592.122 59.333 592.122 63.015V79.6462H585.901V59.6769C585.901 57.2044 585.841 54.5541 585.669 51.6785H591.137L591.428 55.9949H591.6C593.266 53.0066 596.665 51.1034 600.46 51.1034C606.332 51.1034 610.193 55.5917 610.193 62.8964V79.6462ZM652.01 56.3447H645.172V69.9224C645.172 73.3791 646.37 75.1045 648.79 75.1045C649.887 75.1045 650.806 74.9859 651.548 74.814L651.72 79.5336C650.516 79.996 648.902 80.2273 646.898 80.2273C641.999 80.2273 639.069 77.5236 639.069 70.4442V56.3447H634.989V51.6844H639.069V46.5616L645.172 44.7177V51.6785H652.01V56.3447ZM684.914 79.6462H678.704V63.7087C678.704 58.7045 676.812 56.1728 673.064 56.1728C669.844 56.1728 666.843 58.3606 666.843 62.7897V79.6462H660.633V38.8538H666.843V55.651H666.967C668.925 52.6034 671.759 51.1034 675.377 51.1034C681.296 51.1034 684.914 55.7044 684.914 63.015V79.6462ZM718.624 67.1595H699.972C700.09 72.4542 703.595 75.4425 708.785 75.4425C711.543 75.4425 714.081 74.98 716.323 74.1203L717.289 78.4367C714.644 79.5869 711.531 80.1621 707.907 80.1621C699.159 80.1621 693.982 74.6361 693.982 66.0685C693.982 57.495 699.284 51.05 707.207 51.05C714.354 51.05 718.837 56.3447 718.837 64.3431C718.878 65.287 718.806 66.2324 718.624 67.1595ZM712.924 62.7304C712.924 58.414 710.748 55.3664 706.774 55.3664C703.204 55.3664 700.381 58.4733 699.978 62.7304H712.924Z" fill="white"/>
<defs>
<linearGradient id="paint0_linear_25_27" x1="586.896" y1="237.73" x2="586.896" y2="-617.368" gradientUnits="userSpaceOnUse">
<stop stop-color="#1A1A1A" stop-opacity="0.1"/>
<stop offset="0.123" stop-color="#212121" stop-opacity="0.151"/>
<stop offset="0.308" stop-color="#353535" stop-opacity="0.227"/>
<stop offset="0.532" stop-color="#575757" stop-opacity="0.318"/>
<stop offset="0.783" stop-color="#858585" stop-opacity="0.421"/>
<stop offset="1" stop-color="#B3B3B3" stop-opacity="0.51"/>
</linearGradient>
</defs>
</svg>
